<?xml version="1.0" encoding="UTF-8" standalone="no"?>
<!-- Created with Inkscape (http://www.inkscape.org/) -->

<svg
   width="565.61945"
   height="88.376495"
   viewBox="0 0 565.61945 88.376499"
   version="1.1"
   id="svg1"
   xmlns="http://www.w3.org/2000/svg"
   xmlns:svg="http://www.w3.org/2000/svg">
  <defs
     id="defs1">
    <filter
       style="color-interpolation-filters:sRGB"
       id="filter22"
       x="-0.0028870042"
       y="-0.019864981"
       width="1.0129374"
       height="1.08902">
      <feFlood
         result="flood"
         in="SourceGraphic"
         flood-opacity="1.000000"
         flood-color="rgb(255,255,255)"
         id="feFlood21" />
      <feGaussianBlur
         result="blur"
         in="SourceGraphic"
         stdDeviation="0.000000"
         id="feGaussianBlur21" />
      <feOffset
         result="offset"
         in="blur"
         dx="4.000000"
         dy="4.000000"
         id="feOffset21" />
      <feComposite
         result="comp1"
         operator="in"
         in="flood"
         in2="offset"
         id="feComposite21" />
      <feComposite
         result="comp2"
         operator="over"
         in="SourceGraphic"
         in2="comp1"
         id="feComposite22" />
    </filter>
  </defs>
  <g
     id="layer1"
     transform="translate(-0.82113593,-126.32679)">
    <g
       id="g4"
       style="filter:url(#filter22)"
       transform="translate(2.6002991,74.758597)">
      <path
         style="font-size:26.6667px;font-family:Simpsonfont;-inkscape-font-specification:Simpsonfont;text-align:center;letter-spacing:5px;white-space:pre;fill:#f40000;stroke:#ffffff;stroke-width:3.22418;stroke-linecap:round;stroke-linejoin:round;paint-order:markers stroke fill"
         d="m 98.862604,112.67012 q -1.679281,-5.16371 -3.778351,-12.51049 l -1.847196,-6.297239 -1.805186,-6.297208 -0.83964,-3.064679 -0.88162,-3.064647 q -1.049535,-3.652382 -1.931154,-6.171272 -2.434932,-6.968933 -5.793463,-11.376998 -0.797629,-1.049535 -1.805185,-2.015112 -1.175504,-1.175504 -2.392954,-1.889176 -3.064646,-1.889175 -5.373642,-0.545756 -3.778351,2.225005 -6.842997,7.850553 -1.091514,2.015112 -2.308964,4.953822 -0.377841,0.881587 -1.007555,2.4349 l -0.503811,1.175503 -0.461767,1.133492 q -0.251808,0.545757 -0.923598,2.267017 -0.335863,0.88162 -0.545757,1.469355 -0.335862,0.839609 -0.629746,1.553313 -1.679249,4.114181 -3.274541,6.842997 -4.743928,8.312353 -9.69775,6.800987 -3.484466,-1.091514 -5.121737,-6.591093 -0.503778,-1.763206 -1.007556,-4.659938 L 39.87854,83.576938 39.710561,82.485392 q -0.209894,-1.175471 -0.377842,-1.889175 -0.587735,-2.728784 -1.30144,-4.785875 -0.881587,-2.728816 -2.05709,-4.701949 -2.93871,-5.079758 -7.640627,-5.87742 -5.793463,-0.965577 -9.991602,6.171304 -3.400509,5.751484 -5.205727,8.984046 -2.896731,5.079758 -4.9958004,9.277929 -5.3316635,10.579338 -7.72461681,19.395468 -0.79762962,2.89673 -0.50377795,5.41562 0.29404511,3.31655 2.39295336,4.70195 3.4844668,2.30896 6.3811981,-1.46936 1.0495347,-1.34341 2.0151117,-3.44248 0.335863,-0.83964 0.713704,-1.76324 0.251809,-0.6717 0.503778,-1.46936 l 1.049535,-3.10662 1.049535,-3.10663 q 1.21745,-3.52648 2.392953,-6.045366 3.106625,-6.591092 7.598648,-10.411422 4.743928,-4.030223 7.682638,4.575981 0.503778,1.553345 1.049535,3.610435 0.33583,1.469355 0.79763,3.610402 0.965577,4.57598 1.217482,5.33166 1.847196,5.4576 4.9958,7.59865 3.694361,2.60288 8.018469,-0.67169 3.610403,-2.72882 6.968934,-7.38875 2.267017,-3.19062 5.289684,-8.732177 0.335863,-0.587736 1.21745,-2.392953 l 0.377842,-0.755651 0.41982,-0.797662 q 0.461799,-0.923598 0.88162,-1.721228 2.350974,-4.450044 4.324107,-7.052891 6.045335,-7.892532 10.285453,-0.839641 2.057123,3.358531 3.526478,9.27793 l 0.587736,2.476911 0.545756,2.47691 q 0.671694,3.064652 1.133493,4.785872 l 5.919399,21.24267 0.251808,0.79766 0.209894,0.83964 q 0.293723,1.04953 0.545757,1.80518 0.671725,2.22504 1.427376,3.73638 2.141048,4.15616 5.625515,4.15616 6.25526,0 5.24771,-8.35433 -0.33587,-2.81275 -1.55332,-6.67505 -0.37784,-1.25947 -0.92359,-2.89674 l -0.209899,-0.62971 -0.209894,-0.58777 q -0.209894,-0.62971 -0.33583,-0.96554 z M 132.06997,99.865748 q -0.33586,-2.854721 1.46936,-7.346743 1.46935,-3.694394 3.56842,-6.717061 1.67928,-2.350975 5.9194,-3.988245 4.78591,-1.889176 6.08735,0.965577 1.42737,3.190583 -1.72126,8.060447 -2.60285,3.988245 -5.9194,6.255262 -1.72123,1.175471 -4.53401,1.847196 -0.88161,0.209895 -2.43493,0.4618 l -1.21745,0.251808 z m 26.95217,12.594482 q -1.88918,0 -4.07224,0.75568 -0.79763,0.25181 -1.93112,0.75565 l -1.84719,0.79766 q -4.74393,1.93116 -8.27038,0.96558 -3.35853,-0.9236 -6.00335,-3.48447 -2.81278,-2.68683 -3.48447,-5.91939 7.93451,0.0419 14.39967,-4.49206 6.71706,-4.743895 8.64821,-12.342575 1.30141,-5.331632 -0.16798,-9.823654 -1.3854,-4.198171 -4.82788,-6.633104 -3.44249,-2.434932 -7.85053,-2.350974 -4.65997,0.08383 -9.11001,3.0227 -5.07976,3.316519 -8.18642,9.026024 -2.89669,5.289685 -3.73634,11.880777 -0.79766,6.339216 0.4618,12.594446 1.30141,6.33922 4.40807,11.20909 7.43073,11.54491 21.99831,8.6062 6.42318,-1.34339 10.99919,-4.15616 3.44249,-2.14105 3.02267,-5.7095 -0.41982,-3.61041 -4.45004,-4.70192 -0.33587,0 -0.16798,0.0838 0.12606,0.0419 0.41982,0.0838 0.33586,0.0419 0.33586,0.0419 0,-0.0419 -0.58774,-0.20989 z m 58.81612,1.00755 q -2.68681,0 -8.06045,-0.16798 l -4.03023,-0.16797 -3.98824,-0.0419 q -7.43073,0 -7.64066,-6.3812 -0.0838,-2.39295 0.88162,-5.9194 0.37784,-1.343383 0.9236,-3.064643 l 0.54576,-1.469355 0.50377,-1.427376 q 4.91185,-13.769952 5.54156,-21.410579 0.25181,-2.812774 -0.9236,-4.659938 -1.30141,-2.18306 -4.11418,-2.18306 -3.86231,0 -6.29724,5.079759 -0.88159,1.889175 -1.55331,4.492022 -0.29372,0.965578 -0.50378,2.099102 -0.16798,0.79763 -0.41982,1.889176 -0.0419,0.377809 -0.25181,1.385365 l -0.12606,0.461799 -0.0838,0.503778 q -0.12607,0.629746 -0.2099,1.133524 -0.62971,3.064647 -1.13349,5.793431 -1.55331,8.438288 -2.18306,15.113375 -1.97313,20.40302 4.534,21.28464 8.90009,1.25946 22.50213,-0.50378 0.29404,-0.0419 0.75568,-0.12607 0.54576,-0.0838 1.17547,-0.16797 1.59529,-0.25181 2.93871,-0.4618 3.86231,-0.71368 3.86231,-1.17548 2.43493,-1.00755 3.40051,-2.72878 0.88159,-1.55334 0.33583,-3.27457 -0.54576,-1.67925 -2.18303,-2.72882 -1.80521,-1.17547 -4.19817,-1.17547 z m 79.47104,-1.34341 q -0.58774,-5.83545 -0.58774,-13.392115 0,-2.854752 0.0838,-6.67505 l 0.16798,-6.71706 q 0.0419,-0.839641 0.29373,-3.652383 0.29404,-2.854752 0.37784,-3.862308 0.58773,-6.423177 0.4618,-10.831242 -0.41982,-13.979846 -7.68264,-13.811931 -4.61796,0.08383 -5.12174,6.591092 -0.16798,2.434932 0.12607,6.675082 l 0.12606,1.889176 0.16798,1.889143 q 0.2099,2.434932 0.29372,3.904287 0.62972,9.69775 -1.34341,14.357688 -2.77077,6.633103 -11.29301,6.842997 -5.4576,0.209894 -6.92696,0.08383 -4.07223,-0.335831 -6.08734,-2.560869 -2.51889,-2.770763 -3.10663,-7.220807 -0.41982,-3.022667 0.0419,-9.277929 0.4618,-6.297241 0.41982,-8.144437 -0.12606,-4.827853 -1.76323,-7.97649 -1.88915,-3.610403 -5.24768,-2.686805 -3.23259,0.88162 -4.24015,4.575981 -0.54575,2.015111 0,4.911843 l 0.25181,1.21745 0.25181,1.217482 q 0.33586,1.469355 1.04953,7.346775 0.75569,5.87742 0.71371,9.026025 -0.2099,9.193971 -5.49958,11.544914 -1.04957,0.461799 -2.51889,0.377841 -4.78591,0.88162 -4.78591,4.534 0,1.34342 0.50378,2.5609 0.88162,2.26699 2.93871,2.72879 1.55331,0.37784 4.24012,-0.29373 2.05712,-1.1755 3.40051,-0.75568 2.14108,0.67169 2.26701,4.0722 0.0419,1.25946 -0.16798,3.31655 l -0.2518,1.80522 -0.2099,1.84717 q -0.4618,4.53403 0.29373,6.59112 1.09151,2.93871 4.95382,2.93871 1.34342,0 1.67928,-0.25181 0.29372,-0.20989 0.67169,-0.4618 l 0.58774,-0.41982 q 0.7137,-0.41982 1.04953,-0.75565 0.96558,-0.88162 1.17551,-2.56087 0.20989,-1.21748 0.0838,-3.19061 l -0.0838,-1.72123 -0.12607,-1.72126 q -0.25181,-4.36609 0.79766,-6.42318 1.21745,-2.43493 6.54912,-3.86231 1.93115,-0.54575 14.52563,-2.01511 4.32408,-0.0419 5.96138,1.93116 0.41982,0.54575 0.62971,2.81277 l 0.25181,4.70192 q 0.2099,6.29724 0.83961,6.29724 0,8.14443 5.03778,8.14443 1.34342,0 1.67928,-0.29372 0.4618,-0.37784 1.17547,-0.83964 l 0.50378,-0.33583 0.50378,-0.33586 q 0.96557,-0.79766 1.30144,-2.39295 0.33586,-1.67925 0,-3.90429 -0.12607,-0.83961 -0.41982,-1.97314 l -0.41982,-1.93115 q -0.37785,-1.59529 -0.54576,-3.48447 z m 50.37786,-38.958886 q 8.22836,0 15.1973,9.110014 7.01094,9.109982 7.01094,20.990762 0.0838,9.86566 -11.88081,16.91859 -10.53736,6.08731 -21.49453,6.21325 -6.88498,0 -10.45341,-7.80858 -2.47691,-5.75145 -2.47691,-13.51805 0,-11.880772 5.62552,-21.032765 6.75904,-10.789231 18.4719,-10.873221 z m -11.79682,31.486166 q -0.0838,0.41982 -0.16798,0.58774 -0.0419,0.12607 -1.04953,1.6373 -1.00756,1.51134 -1.00756,2.72879 0,1.97313 2.22504,4.24015 l 3.1486,1.55331 q 1.34342,0.62971 4.24015,0.71367 l 3.56843,-0.29372 q 2.64482,-0.2099 7.72461,-5.79346 5.07976,-5.58354 5.16372,-12.720422 0,-5.373642 -3.10663,-9.907644 -3.69439,-5.163716 -9.23595,-5.163716 l -1.46935,0.08383 q -4.86987,0 -7.47271,6.842997 -2.309,6.381198 -2.56087,15.491175 z M 439.83661,81.435857 q -2.77076,-5.835441 -8.3543,-5.247673 -5.07979,0.503778 -3.77835,5.961378 0.41982,1.805185 1.67925,4.492022 l 0.50378,1.007556 0.4618,0.965577 q 0.54575,1.175471 0.75568,1.637271 2.98069,6.71706 1.80519,15.743082 -1.25943,9.94963 -7.01092,13.72798 -4.61796,3.02266 -8.98404,1.84716 -3.82033,-1.00756 -6.88498,-4.9958 -2.81277,-3.65238 -4.24015,-8.69016 -1.38536,-4.91184 -0.92356,-9.068037 0.16798,-1.385365 1.13349,-5.331631 0.50378,-1.931155 0.75565,-3.064679 0.37784,-1.721228 0.54579,-3.106625 0.92356,-7.514691 -3.94627,-9.781708 -5.66752,-2.644826 -8.4803,1.973133 -2.30896,3.778351 -2.51889,12.132682 -0.12606,6.67505 1.00756,14.609565 1.00755,6.84299 2.01511,9.27793 3.48447,8.27037 11.79682,11.92275 7.80857,3.44249 17.00255,1.67928 9.44584,-1.80522 14.14776,-11.08315 3.69439,-7.38875 3.98824,-18.345928 0.0838,-2.099069 0.0419,-3.904287 -0.0419,-2.560868 -0.25181,-4.785874 -0.54576,-5.96141 -2.26702,-9.571814 z m 55.45765,-11.75484 q 2.30896,-0.293723 4.2821,0.671725 1.88917,0.923599 2.85475,2.644827 1.04954,1.805217 0.62971,3.736372 -0.41978,2.099069 -2.56086,3.69436 -1.76321,0.88162 -4.95383,1.931155 l -2.39295,0.797661 q -1.30141,0.4618 -2.30896,0.923599 -3.98825,1.805185 -4.95382,2.686805 -1.72126,1.511334 -1.8472,4.57598 -0.0838,1.343419 0.67169,3.610436 l 0.29405,0.965545 0.33586,0.965577 q 0.33583,1.175503 0.46177,2.015144 l 0.54579,1.931117 0.62971,2.01515 q 0.71367,2.4349 1.09151,4.03022 1.21749,4.7439 1.21749,8.48027 0,6.71703 -5.79347,10.4534 -4.86986,3.1486 -11.79682,3.06465 l -1.34341,-0.0419 -1.3854,-0.0419 q -1.67925,-0.12607 -2.85472,-0.41982 -3.27457,-0.9236 -4.53404,-3.73634 -0.96557,-2.22504 0.41982,-4.53404 0.96558,-1.51133 3.06465,-3.10662 1.3854,-0.54576 4.07224,-0.37784 l 1.09151,0.0838 1.13349,0.0838 q 1.30144,0.0838 2.09907,0.12607 4.19817,0.0419 3.82033,-3.02267 -0.4618,-5.83544 -3.65238,-13.72797 -2.89673,-7.346776 -0.9236,-14.945424 1.72123,-6.549114 9.44584,-10.369443 2.35098,-1.133492 6.71707,-2.686837 l 1.63727,-0.587736 1.63727,-0.629714 q 1.76324,-0.629715 3.14863,-1.259461 z m 31.48614,30.184731 q -0.33586,-2.854721 1.46935,-7.346743 1.46936,-3.694394 3.56843,-6.717061 1.67925,-2.350975 5.9194,-3.988245 4.7859,-1.889176 6.08731,0.965577 1.42738,3.190583 -1.72123,8.060447 -2.60284,3.988245 -5.91939,6.255262 -1.72126,1.175471 -4.53401,1.847196 -0.88162,0.209895 -2.43493,0.4618 l -1.21748,0.251808 z m 26.95214,12.594482 q -1.88915,0 -4.07221,0.75568 -0.79763,0.25181 -1.93115,0.75565 l -1.84716,0.79766 q -4.74393,1.93116 -8.27038,0.96558 -3.35853,-0.9236 -6.00335,-3.48447 -2.81278,-2.68683 -3.48447,-5.91939 7.93451,0.0419 14.39966,-4.49206 6.71703,-4.743895 8.64819,-12.342575 1.30144,-5.331632 -0.16798,-9.823654 -1.3854,-4.198171 -4.82789,-6.633104 -3.44249,-2.434932 -7.85055,-2.350974 -4.65994,0.08383 -9.10998,3.0227 -5.07979,3.316519 -8.18642,9.026024 -2.89673,5.289685 -3.73634,11.880777 -0.79766,6.339216 0.4618,12.594446 1.30141,6.33922 4.40803,11.20909 7.43077,11.54491 21.99835,8.6062 6.42318,-1.34339 10.99916,-4.15616 3.44249,-2.14105 3.02267,-5.7095 -0.41979,-3.61041 -4.45005,-4.70192 -0.33583,0 -0.16798,0.0838 0.12607,0.0419 0.41982,0.0838 0.33586,0.0419 0.33586,0.0419 0,-0.0419 -0.58776,-0.20989 z"
         id="text4"
         aria-label="MelHouse" />
    </g>
  </g>
</svg>
